<?xml version="1.0" encoding="utf-8"?>
<!-- Generator: Adobe Illustrator 26.2.1, SVG Export Plug-In . SVG Version: 6.00 Build 0)  -->
<svg version="1.1" id="Layer_1" xmlns="http://www.w3.org/2000/svg" xmlns:xlink="http://www.w3.org/1999/xlink" x="0px" y="0px"
	 viewBox="0 0 256 256" style="enable-background:new 0 0 256 256;" xml:space="preserve">
<style type="text/css">
	.st0{fill:#FFFFFF;}
</style>
<g>
	<g id="XMLID_00000121276812268090211760000015867257563978254506_">
		<g>
			<path class="st0" d="M255.2,75.2c0.6,13.6,0.8,18,0.8,52.8s-0.1,39.1-0.8,52.8c-0.6,13.6-2.8,22.9-5.9,31.1
				c-3.3,8.4-7.6,15.5-14.8,22.7c-7.1,7.1-14.3,11.5-22.7,14.8c-8.1,3.2-17.4,5.3-31.1,5.9c-13.7,0.6-18,0.8-52.8,0.8
				s-39.1-0.1-52.8-0.8c-13.6-0.6-22.9-2.8-31.1-5.9c-8.4-3.3-15.6-7.6-22.7-14.8c-7.1-7.1-11.5-14.3-14.8-22.7
				c-3.2-8.2-5.3-17.5-5.9-31.1C0.2,167.1,0,162.8,0,128s0.2-39.1,0.8-52.8c0.6-13.6,2.8-22.9,5.9-31.1c3.3-8.4,7.7-15.6,14.8-22.7
				C28.6,14.4,35.7,10,44.2,6.7c8.1-3.2,17.4-5.3,31.1-5.9C88.9,0.2,93.2,0,128,0s39.1,0.2,52.8,0.8c13.6,0.6,22.9,2.8,31.1,5.9
				c8.4,3.3,15.6,7.7,22.7,14.8c7.1,7.1,11.5,14.3,14.8,22.7C252.4,52.3,254.6,61.6,255.2,75.2z M232.9,128
				c0-34.2-0.1-38.2-0.8-51.7c-0.6-12.5-2.7-19.3-4.4-23.8c-2.3-6-5.1-10.2-9.6-14.7c-4.5-4.5-8.8-7.2-14.7-9.6
				c-4.5-1.8-11.3-3.8-23.8-4.4c-13.5-0.6-17.5-0.8-51.7-0.8s-38.2,0.1-51.7,0.8c-12.5,0.6-19.3,2.6-23.8,4.4
				c-6,2.3-10.2,5.1-14.7,9.6s-7.2,8.8-9.6,14.7c-1.8,4.5-3.8,11.3-4.4,23.8c-0.6,13.5-0.8,17.5-0.8,51.7s0.1,38.2,0.8,51.7
				c0.6,12.5,2.6,19.3,4.4,23.8c2.3,6,5.1,10.2,9.6,14.7c4.5,4.5,8.7,7.2,14.7,9.6c4.5,1.8,11.3,3.8,23.8,4.4
				c13.5,0.6,17.5,0.8,51.7,0.8s38.2-0.1,51.7-0.8c12.5-0.6,19.3-2.7,23.8-4.4c6-2.3,10.2-5.1,14.7-9.6c4.5-4.5,7.2-8.7,9.6-14.7
				c1.8-4.5,3.8-11.3,4.4-23.8C232.8,166.2,232.9,162.2,232.9,128z"/>
			<circle class="st0" cx="196.3" cy="59.7" r="15.4"/>
			<path class="st0" d="M128,62.3c36.3,0,65.7,29.4,65.7,65.7s-29.4,65.7-65.7,65.7S62.3,164.3,62.3,128S91.7,62.3,128,62.3z
				 M170.7,128c0-23.6-19.1-42.7-42.7-42.7S85.3,104.4,85.3,128s19.1,42.7,42.7,42.7S170.7,151.6,170.7,128z"/>
		</g>
		<g>
		</g>
	</g>
</g>
</svg>
