<?xml version="1.0" encoding="utf-8"?>
<!-- Generator: Adobe Illustrator 26.2.1, SVG Export Plug-In . SVG Version: 6.00 Build 0)  -->
<svg version="1.1" id="a" xmlns="http://www.w3.org/2000/svg" xmlns:xlink="http://www.w3.org/1999/xlink" x="0px" y="0px"
	 viewBox="0 0 290.7 289.7" style="enable-background:new 0 0 290.7 289.7;" xml:space="preserve">
<style type="text/css">
	.st0{fill:#F8F9FA;}
</style>
<g>
	<path class="st0" d="M144.9,289.4c-49.7,0-96.7-26.2-123-68.4h-0.2l-2.3-4l-6.9-12h0.7c-7.5-16.4-12-34.4-13-52.4H0v-8
		c0-20.8,4.6-41.5,13.2-60.4h-0.7l6.9-12l2.2-4h0.2c12.5-20.1,30.1-37,50.7-49C93.7,7,117.7,0.3,141.9-0.2v-0.1l3.2,0l0.1,0
		c49.6,0.1,96.5,26.3,122.7,68.4h0.3l2.3,4c0.8,1.3,1.5,2.7,2.3,4.1l4.6,7.9h-0.7c8.6,18.9,13.2,39.6,13.2,60.3v8.1h-0.3
		c-1,18-5.5,35.9-13,52.3h0.9l-6.9,12c-25.9,44.7-73.9,72.5-125.5,72.5l0,0H144.9z M102.6,221c10.3,32.8,26.1,52.4,42.3,52.4
		c16.1,0,32.1-20,42.3-52.4H102.6z M41.2,221c16.5,22.3,40.2,39,66.8,47c-0.2-0.3-0.4-0.6-0.7-0.9c-0.3-0.4-0.6-0.8-0.9-1.2
		c-0.4-0.5-0.7-1-1-1.4c-0.4-0.5-0.8-1.1-1.1-1.7l-0.2-0.3c-0.2-0.3-0.4-0.5-0.5-0.8c-0.5-0.8-1.1-1.7-1.6-2.6l-0.2-0.4
		c-1.9-3.2-3.8-6.7-5.6-10.4c-0.6-1.3-1.2-2.5-1.7-3.7l-0.2-0.4c-0.5-1.1-1-2.2-1.5-3.4l-0.3-0.6c-0.4-1.1-0.9-2.1-1.3-3.2l-0.4-0.9
		c-0.4-1-0.7-1.9-1.1-2.9c0,0-0.4-1-0.5-1.4c-0.3-0.7-0.5-1.5-0.8-2.2l-0.1-0.4c-0.2-0.6-0.4-1.2-0.6-1.8l-0.1-0.4
		c-0.7-2.1-1.3-4.1-1.9-6H41.2z M204,221c-4.8,16.9-11.1,31.1-18.8,42.4l-0.2,0.3c-0.2,0.3-0.3,0.5-0.5,0.7c-0.3,0.5-0.6,0.9-1,1.3
		c-0.4,0.6-0.8,1.1-1.2,1.6l-0.4,0.5c26.8-8.1,50.1-24.4,66.7-46.9H204z M191.4,205c3.7-16.2,5.9-34.2,6.4-52.4H92
		c0.5,18.2,2.7,36.2,6.3,52.4H191.4z M81.9,205c-2.1-10-3.7-20.6-4.7-31.6c-0.1-1-0.2-2.1-0.3-3.1l-0.1-1.3c0-0.5-0.1-1.1-0.1-1.6
		c-0.4-5.1-0.6-10-0.8-14.8H16.4c1.2,18.3,6.2,36.3,14.7,52.4H81.9z M258.8,204.9c8.6-16.2,13.6-34.2,14.7-52.3H214
		c-0.5,18-2.5,35.9-5.9,52.3H258.8z M197.9,136.6c-0.5-18.2-2.7-36.2-6.3-52.4H98.4c-3.7,16-5.9,34-6.4,52.4H197.9z M75.9,136.6
		c0.5-18,2.5-36,6-52.4H31.2c-8.6,16-13.7,34-14.8,52.4H75.9z M273.5,136.5c-1.2-18.3-6.2-36.2-14.7-52.3H208
		c0.3,1.7,0.7,3.5,1.1,5.5c0.2,1.2,0.5,2.5,0.7,3.7l0.3,1.5c0.3,1.9,0.6,4,1,6.3l0.2,1.2c0.3,2.2,0.6,4.2,0.8,6.2
		c0.1,0.5,0.1,1,0.2,1.6l0.1,0.7c0.1,1.1,0.2,2.2,0.3,3.3c0.7,7.5,1.2,15.1,1.4,22.4H273.5z M187.3,68.2
		c-10.3-32.8-26.2-52.4-42.4-52.4l-0.5,0c-0.4,0-0.7,0-1.1,0l-0.4,0c-0.4,0-0.7,0.1-1.1,0.1l-0.5,0.1c-0.4,0.1-0.7,0.1-1.1,0.2
		c-0.1,0-0.5,0.1-0.5,0.1c-0.3,0.1-0.7,0.2-1,0.3c-0.1,0-0.6,0.2-0.6,0.2c-0.3,0.1-0.6,0.2-0.9,0.3c-0.2,0.1-0.5,0.2-0.7,0.3
		c-0.3,0.1-0.5,0.2-0.8,0.3c-0.3,0.1-0.6,0.3-0.9,0.4c-0.2,0.1-0.4,0.2-0.6,0.3c-0.3,0.2-0.7,0.4-1,0.6l-0.4,0.2
		c-0.4,0.3-0.8,0.5-1.2,0.8l-0.1,0.1c-11.4,7.8-21.6,24.7-28.8,47.8H187.3z M85.9,68.2c0.2-0.6,0.4-1.3,0.6-1.9
		c1.6-5.5,3.5-10.9,5.5-15.9l0-0.1c0.4-1.1,0.9-2.2,1.4-3.3l0.2-0.5c0.4-1,0.8-1.9,1.3-2.9l0.5-1.1c0.4-0.8,0.7-1.5,1-2.2
		c0.4-0.8,0.8-1.6,1.2-2.3l0.4-0.9c3.1-5.9,6.4-11.2,10-15.9c-26.8,8-50.1,24.4-66.8,47H85.9z M248.6,68.1
		c-16.5-22.2-40.1-38.8-66.6-46.8c8.9,11.6,16.4,27.6,22,46.8H248.6z"/>
</g>
</svg>
